<svg xmlns="http://www.w3.org/2000/svg" xmlns:xlink="http://www.w3.org/1999/xlink" width="3840" zoomAndPan="magnify" viewBox="0 0 2880 2879.999992" height="3840" preserveAspectRatio="xMidYMid meet" version="1.0"><defs><g/><clipPath id="049e642bf9"><path d="M 16.5 16.5 L 2863.5 16.5 L 2863.5 2863.5 L 16.5 2863.5 Z M 16.5 16.5 " clip-rule="nonzero"/></clipPath><clipPath id="9923eea562"><path d="M 91.5 16.5 L 2788.5 16.5 C 2829.921875 16.5 2863.5 50.078125 2863.5 91.5 L 2863.5 2788.5 C 2863.5 2829.921875 2829.921875 2863.5 2788.5 2863.5 L 91.5 2863.5 C 50.078125 2863.5 16.5 2829.921875 16.5 2788.5 L 16.5 91.5 C 16.5 50.078125 50.078125 16.5 91.5 16.5 Z M 91.5 16.5 " clip-rule="nonzero"/></clipPath><clipPath id="44142743d8"><path d="M 1016 989.210938 L 1865 989.210938 L 1865 1890.710938 L 1016 1890.710938 Z M 1016 989.210938 " clip-rule="nonzero"/></clipPath><clipPath id="da721eebe9"><path d="M 1832 610 L 2305 610 L 2305 1087 L 1832 1087 Z M 1832 610 " clip-rule="nonzero"/></clipPath><clipPath id="81d240cbab"><path d="M 2141.195312 359.519531 L 2591.8125 1022.65625 L 2067.632812 1378.847656 L 1617.015625 715.714844 Z M 2141.195312 359.519531 " clip-rule="nonzero"/></clipPath><clipPath id="246fe14ef2"><path d="M 2141.195312 359.519531 L 2591.8125 1022.65625 L 2067.632812 1378.847656 L 1617.015625 715.714844 Z M 2141.195312 359.519531 " clip-rule="nonzero"/></clipPath><clipPath id="52cbe84433"><path d="M 1987 453 L 2464 453 L 2464 1118 L 1987 1118 Z M 1987 453 " clip-rule="nonzero"/></clipPath><clipPath id="1c791eee8f"><path d="M 2141.195312 359.519531 L 2591.8125 1022.65625 L 2067.632812 1378.847656 L 1617.015625 715.714844 Z M 2141.195312 359.519531 " clip-rule="nonzero"/></clipPath><clipPath id="af13fceb71"><path d="M 2141.195312 359.519531 L 2591.8125 1022.65625 L 2067.632812 1378.847656 L 1617.015625 715.714844 Z M 2141.195312 359.519531 " clip-rule="nonzero"/></clipPath><clipPath id="134eed8b90"><path d="M 1958 610 L 2305 610 L 2305 1087 L 1958 1087 Z M 1958 610 " clip-rule="nonzero"/></clipPath><clipPath id="8a9adc9e9e"><path d="M 2141.195312 359.519531 L 2591.8125 1022.65625 L 2067.632812 1378.847656 L 1617.015625 715.714844 Z M 2141.195312 359.519531 " clip-rule="nonzero"/></clipPath><clipPath id="2704883a25"><path d="M 2141.195312 359.519531 L 2591.8125 1022.65625 L 2067.632812 1378.847656 L 1617.015625 715.714844 Z M 2141.195312 359.519531 " clip-rule="nonzero"/></clipPath><clipPath id="812fe95648"><path d="M 1927 767 L 2145 767 L 2145 1057 L 1927 1057 Z M 1927 767 " clip-rule="nonzero"/></clipPath><clipPath id="397d24a71e"><path d="M 2141.195312 359.519531 L 2591.8125 1022.65625 L 2067.632812 1378.847656 L 1617.015625 715.714844 Z M 2141.195312 359.519531 " clip-rule="nonzero"/></clipPath><clipPath id="4198cf4354"><path d="M 2141.195312 359.519531 L 2591.8125 1022.65625 L 2067.632812 1378.847656 L 1617.015625 715.714844 Z M 2141.195312 359.519531 " clip-rule="nonzero"/></clipPath><clipPath id="200c0a33fa"><path d="M 1832 947 L 1961 947 L 1961 1076 L 1832 1076 Z M 1832 947 " clip-rule="nonzero"/></clipPath><clipPath id="c82f9d662c"><path d="M 2141.195312 359.519531 L 2591.8125 1022.65625 L 2067.632812 1378.847656 L 1617.015625 715.714844 Z M 2141.195312 359.519531 " clip-rule="nonzero"/></clipPath><clipPath id="40c1ad7d46"><path d="M 2141.195312 359.519531 L 2591.8125 1022.65625 L 2067.632812 1378.847656 L 1617.015625 715.714844 Z M 2141.195312 359.519531 " clip-rule="nonzero"/></clipPath><clipPath id="1713ca391e"><path d="M 1711.824219 1837.933594 L 2104.824219 1837.933594 L 2104.824219 2230.933594 L 1711.824219 2230.933594 Z M 1711.824219 1837.933594 " clip-rule="nonzero"/></clipPath></defs><g clip-path="url(#049e642bf9)"><g clip-path="url(#9923eea562)"><path fill="#ffffff" d="M 16.5 16.5 L 2863.5 16.5 L 2863.5 2863.5 L 16.5 2863.5 Z M 16.5 16.5 " fill-opacity="1" fill-rule="nonzero"/></g></g><g clip-path="url(#44142743d8)"><path fill="#010101" d="M 1016.082031 1890.710938 L 1354.589844 1890.710938 L 1354.589844 1682.03125 L 1451.082031 1682.03125 C 1701.964844 1682.03125 1864.179688 1545.867188 1864.179688 1335.621094 C 1864.179688 1125.375 1701.964844 989.210938 1451.082031 989.210938 L 1016.082031 989.210938 Z M 1432.828125 1262.0625 C 1471.425781 1262.0625 1523.0625 1269.886719 1523.0625 1335.621094 C 1523.0625 1401.355469 1471.425781 1409.179688 1432.828125 1409.179688 L 1354.589844 1409.179688 L 1354.589844 1262.0625 Z M 1432.828125 1262.0625 " fill-opacity="1" fill-rule="nonzero"/></g><g clip-path="url(#da721eebe9)"><g clip-path="url(#81d240cbab)"><g clip-path="url(#246fe14ef2)"><path fill="#010101" d="M 1958.644531 688.632812 C 2046.339844 706.6875 2117.34375 751.671875 2168.035156 826.296875 C 2218.703125 900.914062 2234.316406 983.492188 2218.855469 1071.121094 C 2245.050781 1076.164062 2270.996094 1081.164062 2296.929688 1086.15625 C 2341.3125 861.429688 2187.878906 648.410156 1973.398438 610.613281 C 1968.5 636.476562 1963.613281 662.347656 1958.644531 688.632812 Z M 1927.9375 845.347656 C 1973.398438 854.71875 2010.007812 877.589844 2036.035156 915.871094 C 2062.105469 954.21875 2069.859375 996.8125 2062.023438 1041.175781 C 2088.484375 1046.253906 2114.414062 1051.253906 2140.339844 1056.226562 C 2167.574219 914.628906 2069.246094 788.582031 1942.949219 767.25 C 1942.808594 767.734375 1942.609375 768.21875 1942.503906 768.71875 C 1937.6875 794.082031 1932.871094 819.449219 1927.9375 845.347656 Z M 1932.320312 1064.464844 C 1961.738281 1044.492188 1969.378906 1004.597656 1949.417969 975.242188 C 1929.574219 946.085938 1889.667969 938.394531 1860.425781 958.097656 C 1831.023438 977.910156 1823.265625 1017.960938 1843.144531 1047.320312 C 1863.089844 1076.792969 1902.894531 1084.433594 1932.320312 1064.464844 Z M 1932.320312 1064.464844 " fill-opacity="1" fill-rule="nonzero"/></g></g></g><g clip-path="url(#52cbe84433)"><g clip-path="url(#1c791eee8f)"><g clip-path="url(#af13fceb71)"><path fill="#010101" d="M 2452.867188 1117.488281 C 2451.527344 1117.050781 2450.214844 1116.445312 2448.839844 1116.175781 C 2425.851562 1111.773438 2402.84375 1107.394531 2379.847656 1103.066406 C 2378.410156 1102.796875 2376.898438 1102.9375 2375.328125 1102.894531 C 2398.472656 970.195312 2375.296875 847.5625 2299.882812 736.582031 C 2224.53125 625.695312 2119.183594 559.023438 1987.886719 531.695312 C 1988.09375 530.472656 1988.304688 529.070312 1988.566406 527.683594 C 1992.980469 504.5625 1997.417969 481.4375 2001.800781 458.308594 C 2002.058594 456.929688 2001.976562 455.488281 2002.054688 454.074219 C 2002.492188 453.777344 2002.941406 453.472656 2003.386719 453.167969 C 2004.628906 453.570312 2005.851562 454.085938 2007.117188 454.335938 C 2034.679688 459.960938 2061.789062 467.238281 2088.277344 476.710938 C 2158.261719 501.738281 2221.066406 538.898438 2276.394531 588.542969 C 2300.589844 610.253906 2322.871094 633.789062 2342.738281 659.578125 C 2346.628906 664.640625 2350.734375 669.546875 2354.75 674.542969 C 2362.417969 685.820312 2370.085938 697.109375 2377.761719 708.402344 C 2378.117188 709.253906 2378.398438 710.15625 2378.851562 710.964844 C 2386.9375 725.425781 2395.359375 739.699219 2403.078125 754.355469 C 2418.851562 784.308594 2431.074219 815.746094 2440.628906 848.214844 C 2465.585938 933.074219 2470.492188 1019.144531 2455.503906 1106.351562 C 2454.914062 1109.734375 2454.625 1113.175781 2454.195312 1116.589844 C 2453.75 1116.886719 2453.300781 1117.191406 2452.867188 1117.488281 Z M 2452.867188 1117.488281 " fill-opacity="1" fill-rule="nonzero"/></g></g></g><g clip-path="url(#134eed8b90)"><g clip-path="url(#8a9adc9e9e)"><g clip-path="url(#2704883a25)"><path fill="#010101" d="M 1958.644531 688.632812 C 1963.613281 662.34375 1968.5 636.476562 1973.398438 610.613281 C 2187.878906 648.410156 2341.3125 861.429688 2296.929688 1086.15625 C 2270.996094 1081.164062 2245.046875 1076.160156 2218.855469 1071.121094 C 2234.316406 983.492188 2218.703125 900.914062 2168.035156 826.296875 C 2117.347656 751.671875 2046.339844 706.6875 1958.644531 688.632812 Z M 1958.644531 688.632812 " fill-opacity="1" fill-rule="nonzero"/></g></g></g><g clip-path="url(#812fe95648)"><g clip-path="url(#397d24a71e)"><g clip-path="url(#4198cf4354)"><path fill="#010101" d="M 1927.9375 845.347656 C 1932.871094 819.449219 1937.6875 794.082031 1942.503906 768.71875 C 1942.609375 768.21875 1942.804688 767.734375 1942.949219 767.253906 C 2069.246094 788.585938 2167.574219 914.628906 2140.339844 1056.226562 C 2114.410156 1051.253906 2088.476562 1046.257812 2062.019531 1041.175781 C 2069.855469 996.8125 2062.105469 954.222656 2036.03125 915.871094 C 2010.007812 877.589844 1973.398438 854.71875 1927.9375 845.347656 Z M 1927.9375 845.347656 " fill-opacity="1" fill-rule="nonzero"/></g></g></g><g clip-path="url(#200c0a33fa)"><g clip-path="url(#c82f9d662c)"><g clip-path="url(#40c1ad7d46)"><path fill="#010101" d="M 1932.320312 1064.464844 C 1902.898438 1084.433594 1863.09375 1076.796875 1843.144531 1047.320312 C 1823.265625 1017.960938 1831.023438 977.910156 1860.425781 958.097656 C 1889.664062 938.390625 1929.574219 946.082031 1949.417969 975.242188 C 1969.378906 1004.597656 1961.738281 1044.492188 1932.320312 1064.464844 Z M 1932.320312 1064.464844 " fill-opacity="1" fill-rule="nonzero"/></g></g></g><g clip-path="url(#1713ca391e)"><path fill="#000000" d="M 2047.269531 1895.488281 C 2011.722656 1859.941406 1962.609375 1837.941406 1908.363281 1837.933594 C 1908.355469 1837.933594 1908.335938 1837.933594 1908.324219 1837.933594 C 1908.316406 1837.933594 1908.296875 1837.933594 1908.285156 1837.933594 C 1854.042969 1837.941406 1804.925781 1859.941406 1769.378906 1895.488281 C 1758.523438 1906.34375 1748.945312 1918.46875 1740.859375 1931.613281 C 1740.699219 1931.832031 1740.5625 1932.046875 1740.445312 1932.28125 C 1722.289062 1962.050781 1711.824219 1997.019531 1711.824219 2034.433594 C 1711.824219 2071.847656 1722.289062 2106.8125 1740.433594 2136.582031 C 1740.5625 2136.820312 1740.699219 2137.035156 1740.847656 2137.25 C 1748.933594 2150.398438 1758.523438 2162.519531 1769.378906 2173.378906 C 1804.9375 2208.933594 1854.070312 2230.933594 1908.324219 2230.933594 C 1962.578125 2230.933594 2011.714844 2208.933594 2047.269531 2173.378906 C 2082.828125 2137.820312 2104.824219 2088.6875 2104.824219 2034.433594 C 2104.824219 1980.179688 2082.828125 1931.042969 2047.269531 1895.488281 Z M 2069.296875 2123.25 L 2029.035156 2123.753906 C 2037.886719 2098.550781 2043.125 2070.1875 2043.714844 2040.160156 L 2092.03125 2040.679688 C 2091.039062 2070.558594 2082.914062 2098.628906 2069.296875 2123.25 Z M 1724.527344 2036.742188 L 1772.898438 2037.261719 C 1773.210938 2069.566406 1778.890625 2100.003906 1788.6875 2126.75 L 1749.621094 2127.238281 C 1734.019531 2100.613281 1724.933594 2069.722656 1724.527344 2036.742188 Z M 1749.621094 1941.636719 L 1788.6875 1942.128906 C 1779.597656 1966.933594 1774.046875 1994.925781 1773.035156 2024.636719 L 1724.792969 2024.117188 C 1726.453125 1994.140625 1735.289062 1966.089844 1749.621094 1941.636719 Z M 1963.601562 2026.679688 C 1963.296875 1997.007812 1961.242188 1969.027344 1957.832031 1944.230469 L 2015.546875 1944.945312 C 2024.742188 1969.507812 2030.253906 1997.53125 2031.011719 2027.398438 Z M 1908.324219 2218.257812 C 1898.046875 2218.25 1887.898438 2198.796875 1879.792969 2167.335938 C 1877.515625 2158.503906 1875.46875 2148.777344 1873.691406 2138.304688 L 1943.105469 2137.4375 C 1941.289062 2148.234375 1939.183594 2158.257812 1936.855469 2167.335938 C 1928.75 2198.796875 1918.601562 2218.257812 1908.324219 2218.257812 Z M 1871.726562 2125.707031 C 1868.023438 2099.769531 1865.851562 2070 1865.695312 2038.246094 L 1950.964844 2039.160156 C 1950.769531 2070.195312 1948.65625 2099.316406 1945.0625 2124.792969 Z M 1865.734375 2025.628906 C 1866.085938 1995.75 1868.21875 1967.742188 1871.726562 1943.160156 L 1945.0625 1944.074219 C 1948.527344 1968.683594 1950.621094 1996.695312 1950.9375 2026.542969 Z M 1873.691406 1930.554688 C 1875.480469 1920.078125 1877.523438 1910.351562 1879.792969 1901.519531 C 1887.898438 1870.070312 1898.058594 1850.605469 1908.324219 1850.605469 C 1918.601562 1850.605469 1928.75 1870.070312 1936.847656 1901.53125 C 1939.183594 1910.597656 1941.277344 1920.621094 1943.097656 1931.425781 Z M 1955.925781 1931.585938 C 1953.960938 1919.578125 1951.664062 1908.445312 1949.070312 1898.414062 C 1944.207031 1879.523438 1938.125 1864.285156 1931.140625 1853.820312 C 1955.496094 1860.726562 1977.375 1878.441406 1994.390625 1903.515625 C 2000.328125 1912.257812 2005.671875 1921.898438 2010.320312 1932.261719 Z M 1867.570312 1898.40625 C 1865.074219 1908.113281 1862.835938 1918.832031 1860.910156 1930.394531 L 1807.460938 1929.726562 C 1811.84375 1920.316406 1816.785156 1911.53125 1822.238281 1903.503906 C 1839.253906 1878.441406 1861.136719 1860.71875 1885.492188 1853.808594 C 1878.515625 1864.273438 1872.445312 1879.523438 1867.570312 1898.40625 Z M 1858.984375 1943 C 1855.515625 1967.769531 1853.414062 1995.78125 1853.058594 2025.492188 L 1785.71875 2024.773438 C 1786.761719 1994.820312 1792.597656 1966.777344 1802.117188 1942.292969 Z M 1785.570312 2037.390625 L 1853.019531 2038.117188 C 1853.175781 2069.792969 1855.320312 2099.640625 1858.992188 2125.875 L 1802.117188 2126.582031 C 1791.878906 2100.28125 1785.914062 2069.871094 1785.570312 2037.390625 Z M 1860.910156 2138.46875 C 1862.835938 2150.023438 1865.066406 2160.753906 1867.570312 2170.460938 C 1872.433594 2189.351562 1878.515625 2204.59375 1885.5 2215.054688 C 1861.144531 2208.148438 1839.265625 2190.433594 1822.25 2165.359375 C 1816.796875 2157.332031 1811.851562 2148.550781 1807.472656 2139.136719 Z M 1949.078125 2170.460938 C 1951.664062 2160.429688 1953.960938 2149.296875 1955.9375 2137.289062 L 2010.339844 2136.613281 C 2005.679688 2146.988281 2000.347656 2156.617188 1994.410156 2165.359375 C 1977.394531 2190.425781 1955.515625 2208.148438 1931.160156 2215.054688 C 1938.132812 2204.59375 1944.207031 2189.351562 1949.078125 2170.460938 Z M 1957.832031 2124.636719 C 1961.359375 2099.03125 1963.433594 2070.039062 1963.628906 2039.296875 L 2031.039062 2040.011719 C 2030.429688 2070.421875 2024.878906 2098.945312 2015.546875 2123.910156 Z M 2043.683594 2027.535156 C 2042.976562 1997.941406 2037.777344 1969.992188 2029.035156 1945.113281 L 2069.296875 1945.613281 C 2082.886719 1970.195312 2091.011719 1998.21875 2092.023438 2028.046875 Z M 2038.308594 1904.449219 C 2046.976562 1913.113281 2054.765625 1922.652344 2061.574219 1932.902344 L 2024.160156 1932.441406 C 2018.6875 1919.351562 2012.195312 1907.269531 2004.847656 1896.441406 C 1995.933594 1883.316406 1985.746094 1872.015625 1974.585938 1862.9375 C 1998.695312 1872.242188 2020.359375 1886.488281 2038.308594 1904.449219 Z M 1778.339844 1904.449219 C 1796.300781 1886.496094 1817.953125 1872.242188 1842.066406 1862.925781 C 1830.902344 1872.007812 1820.714844 1883.304688 1811.804688 1896.429688 C 1804.996094 1906.460938 1798.914062 1917.574219 1793.707031 1929.5625 L 1757.648438 1929.109375 C 1763.828125 1920.296875 1770.746094 1912.03125 1778.339844 1904.449219 Z M 1757.648438 2139.757812 L 1793.695312 2139.304688 C 1798.902344 2151.292969 1804.984375 2162.402344 1811.792969 2172.433594 C 1820.707031 2185.5625 1830.894531 2196.859375 1842.054688 2205.949219 C 1817.945312 2196.625 1796.28125 2182.378906 1778.332031 2164.425781 C 1770.746094 2156.832031 1763.828125 2148.570312 1757.648438 2139.757812 Z M 2038.308594 2164.417969 C 2020.351562 2182.367188 1998.695312 2196.625 1974.585938 2205.9375 C 1985.746094 2196.859375 1995.933594 2185.5625 2004.847656 2172.425781 C 2012.195312 2161.597656 2018.6875 2149.511719 2024.160156 2136.425781 L 2061.574219 2135.964844 C 2054.777344 2146.222656 2046.976562 2155.753906 2038.308594 2164.417969 Z M 2038.308594 2164.417969 " fill-opacity="1" fill-rule="nonzero"/></g><g fill="#000000" fill-opacity="1"><g transform="translate(745.289971, 2632.319983)"><g><path d="M 42.8125 0 L 15.359375 0 L 15.359375 -137.078125 L 69.3125 -137.078125 C 76.988281 -137.078125 83.546875 -135.539062 88.984375 -132.46875 C 94.421875 -129.394531 98.738281 -125.363281 101.9375 -120.375 C 105.144531 -115.382812 107.289062 -109.847656 108.375 -103.765625 C 109.457031 -97.679688 109.457031 -91.632812 108.375 -85.625 C 107.289062 -79.613281 105.113281 -74.109375 101.84375 -69.109375 C 98.582031 -64.117188 94.234375 -60.085938 88.796875 -57.015625 C 83.359375 -53.941406 76.863281 -52.40625 69.3125 -52.40625 L 42.8125 -52.40625 Z M 42.8125 -79.09375 L 67 -79.09375 C 70.707031 -79.09375 73.648438 -80.113281 75.828125 -82.15625 C 78.003906 -84.207031 79.476562 -86.769531 80.25 -89.84375 C 81.019531 -92.914062 81.019531 -95.988281 80.25 -99.0625 C 79.476562 -102.132812 78.003906 -104.691406 75.828125 -106.734375 C 73.648438 -108.785156 70.707031 -109.8125 67 -109.8125 L 42.8125 -109.8125 Z M 42.8125 -79.09375 "/></g></g></g><g fill="#000000" fill-opacity="1"><g transform="translate(861.047632, 2632.319983)"><g><path d="M 86.390625 0 L 15.359375 0 L 15.359375 -137.265625 L 84.09375 -137.265625 L 84.09375 -109.8125 L 42.8125 -109.8125 L 42.8125 -82.359375 L 78.90625 -82.359375 L 78.90625 -54.90625 L 42.8125 -54.90625 L 42.8125 -27.453125 L 86.390625 -27.453125 Z M 86.390625 0 "/></g></g></g><g fill="#000000" fill-opacity="1"><g transform="translate(957.800352, 2632.319983)"><g><path d="M 86.390625 0 L 15.359375 0 L 15.359375 -137.265625 L 84.09375 -137.265625 L 84.09375 -109.8125 L 42.8125 -109.8125 L 42.8125 -82.359375 L 78.90625 -82.359375 L 78.90625 -54.90625 L 42.8125 -54.90625 L 42.8125 -27.453125 L 86.390625 -27.453125 Z M 86.390625 0 "/></g></g></g><g fill="#000000" fill-opacity="1"><g transform="translate(1054.553072, 2632.319983)"><g><path d="M 83.703125 0 L 56.0625 -52.40625 L 42.8125 -52.40625 L 42.8125 0 L 15.359375 0 L 15.359375 -137.265625 L 69.5 -137.265625 C 77.6875 -137.265625 84.628906 -135.566406 90.328125 -132.171875 C 96.023438 -128.785156 100.472656 -124.375 103.671875 -118.9375 C 106.867188 -113.5 108.851562 -107.609375 109.625 -101.265625 C 110.394531 -94.929688 109.914062 -88.722656 108.1875 -82.640625 C 106.457031 -76.566406 103.507812 -71.191406 99.34375 -66.515625 C 95.1875 -61.847656 89.71875 -58.554688 82.9375 -56.640625 L 114.8125 0 Z M 42.8125 -79.09375 L 67 -79.09375 C 70.707031 -79.09375 73.679688 -80.113281 75.921875 -82.15625 C 78.171875 -84.207031 79.675781 -86.769531 80.4375 -89.84375 C 81.207031 -92.914062 81.207031 -95.988281 80.4375 -99.0625 C 79.675781 -102.132812 78.171875 -104.691406 75.921875 -106.734375 C 73.679688 -108.785156 70.707031 -109.8125 67 -109.8125 L 42.8125 -109.8125 Z M 42.8125 -79.09375 "/></g></g></g><g fill="#000000" fill-opacity="1"><g transform="translate(1172.230437, 2632.319983)"><g/></g></g><g fill="#000000" fill-opacity="1"><g transform="translate(1226.74978, 2632.319983)"><g><path d="M 42.8125 -74.6875 L 42.8125 0 L 15.359375 0 L 15.359375 -140.15625 L 22.65625 -140.15625 L 91.953125 -59.515625 L 91.953125 -137.078125 L 119.609375 -137.078125 L 119.609375 2.875 L 112.3125 2.875 Z M 42.8125 -74.6875 "/></g></g></g><g fill="#000000" fill-opacity="1"><g transform="translate(1361.896378, 2632.319983)"><g><path d="M 86.390625 0 L 15.359375 0 L 15.359375 -137.265625 L 84.09375 -137.265625 L 84.09375 -109.8125 L 42.8125 -109.8125 L 42.8125 -82.359375 L 78.90625 -82.359375 L 78.90625 -54.90625 L 42.8125 -54.90625 L 42.8125 -27.453125 L 86.390625 -27.453125 Z M 86.390625 0 "/></g></g></g><g fill="#000000" fill-opacity="1"><g transform="translate(1458.649098, 2632.319983)"><g><path d="M 65.46875 0 L 38.015625 0 L 38.015625 -109.8125 L 3.84375 -109.8125 L 3.84375 -137.078125 L 99.640625 -137.078125 L 99.640625 -109.8125 L 65.46875 -109.8125 Z M 65.46875 0 "/></g></g></g><g fill="#000000" fill-opacity="1"><g transform="translate(1563.656503, 2632.319983)"><g><path d="M 57.40625 2.875 L 1.15625 -137.265625 L 32.0625 -137.265625 L 59.703125 -67.1875 L 86.578125 -135.921875 L 87.921875 -135.921875 L 114.8125 -67.1875 L 142.453125 -137.265625 L 173.359375 -137.265625 L 117.296875 2.296875 L 112.3125 2.296875 L 87.15625 -58.5625 L 62.203125 2.875 Z M 57.40625 2.875 "/></g></g></g><g fill="#000000" fill-opacity="1"><g transform="translate(1738.348868, 2632.319983)"><g><path d="M 81.40625 1.921875 C 69.625 1.921875 59.285156 -0.0625 50.390625 -4.03125 C 41.492188 -8 34.101562 -13.34375 28.21875 -20.0625 C 22.332031 -26.78125 17.914062 -34.363281 14.96875 -42.8125 C 12.03125 -51.257812 10.5625 -59.929688 10.5625 -68.828125 C 10.5625 -77.722656 12.03125 -86.394531 14.96875 -94.84375 C 17.914062 -103.289062 22.332031 -110.875 28.21875 -117.59375 C 34.101562 -124.3125 41.492188 -129.65625 50.390625 -133.625 C 59.285156 -137.59375 69.625 -139.578125 81.40625 -139.578125 C 93.175781 -139.578125 103.507812 -137.59375 112.40625 -133.625 C 121.300781 -129.65625 128.691406 -124.3125 134.578125 -117.59375 C 140.460938 -110.875 144.878906 -103.289062 147.828125 -94.84375 C 150.773438 -86.394531 152.25 -77.722656 152.25 -68.828125 C 152.25 -59.929688 150.773438 -51.257812 147.828125 -42.8125 C 144.878906 -34.363281 140.460938 -26.78125 134.578125 -20.0625 C 128.691406 -13.34375 121.300781 -8 112.40625 -4.03125 C 103.507812 -0.0625 93.175781 1.921875 81.40625 1.921875 Z M 81.40625 -26.5 C 89.207031 -26.5 95.921875 -28.03125 101.546875 -31.09375 C 107.179688 -34.164062 111.660156 -38.226562 114.984375 -43.28125 C 118.316406 -48.34375 120.5625 -53.878906 121.71875 -59.890625 C 122.875 -65.910156 122.875 -71.925781 121.71875 -77.9375 C 120.5625 -83.957031 118.316406 -89.492188 114.984375 -94.546875 C 111.660156 -99.609375 107.179688 -103.671875 101.546875 -106.734375 C 95.921875 -109.804688 89.207031 -111.34375 81.40625 -111.34375 C 73.59375 -111.34375 66.867188 -109.804688 61.234375 -106.734375 C 55.609375 -103.671875 51.128906 -99.609375 47.796875 -94.546875 C 44.472656 -89.492188 42.234375 -83.957031 41.078125 -77.9375 C 39.929688 -71.925781 39.929688 -65.910156 41.078125 -59.890625 C 42.234375 -53.878906 44.472656 -48.34375 47.796875 -43.28125 C 51.128906 -38.226562 55.609375 -34.164062 61.234375 -31.09375 C 66.867188 -28.03125 73.59375 -26.5 81.40625 -26.5 Z M 81.40625 -26.5 "/></g></g></g><g fill="#000000" fill-opacity="1"><g transform="translate(1900.947135, 2632.319983)"><g><path d="M 83.703125 0 L 56.0625 -52.40625 L 42.8125 -52.40625 L 42.8125 0 L 15.359375 0 L 15.359375 -137.265625 L 69.5 -137.265625 C 77.6875 -137.265625 84.628906 -135.566406 90.328125 -132.171875 C 96.023438 -128.785156 100.472656 -124.375 103.671875 -118.9375 C 106.867188 -113.5 108.851562 -107.609375 109.625 -101.265625 C 110.394531 -94.929688 109.914062 -88.722656 108.1875 -82.640625 C 106.457031 -76.566406 103.507812 -71.191406 99.34375 -66.515625 C 95.1875 -61.847656 89.71875 -58.554688 82.9375 -56.640625 L 114.8125 0 Z M 42.8125 -79.09375 L 67 -79.09375 C 70.707031 -79.09375 73.679688 -80.113281 75.921875 -82.15625 C 78.171875 -84.207031 79.675781 -86.769531 80.4375 -89.84375 C 81.207031 -92.914062 81.207031 -95.988281 80.4375 -99.0625 C 79.675781 -102.132812 78.171875 -104.691406 75.921875 -106.734375 C 73.679688 -108.785156 70.707031 -109.8125 67 -109.8125 L 42.8125 -109.8125 Z M 42.8125 -79.09375 "/></g></g></g><g fill="#000000" fill-opacity="1"><g transform="translate(2018.6245, 2632.319983)"><g><path d="M 15.359375 0 L 15.359375 -137.265625 L 42.8125 -137.265625 L 42.8125 -82.546875 L 77.375 -137.265625 L 109.4375 -137.265625 L 64.890625 -69.5 L 113.265625 0 L 79.296875 0 L 42.8125 -53.75 L 42.8125 0 Z M 15.359375 0 "/></g></g></g></svg>